# xmcd
#
# Track frame offsets:
#	183
#	15275
#	35378
#	52833
#	66548
#	83775
#	99008
#	116953
#	133190
#	156858
#	173020
#	192438
#	209263
#	229268
#	250805
#	264765
#	278718
#	295280
#
# Disc length: 4113 seconds
#
# Revision: 2
# Processed by: cddbd v1.5.2PL0 Copyright (c) Steve Scherf et al.
# Submitted via: audiograbber 1.83.01
#
DISCID=f6100f12
DTITLE=Various Artist - Das Beste Aus Musik liegt in der Luft - CD3
DYEAR=1900
DGENRE=Schlager
TTITLE0=Nicki - Hals Über Kopf  1991
TTITLE1=Münchner Freiheit - Einmal Kommt Das Leben  1992
TTITLE2=Jule Neigel Band - Nur Nach Vorn  1991
TTITLE3=Michelle - Erste Sehnsucht  1993
TTITLE4=Blue System - Romeo and Juliet  1992
TTITLE5=Nena - Ohne Ende  1992
TTITLE6=David Hasselhoff - The Girl Forever  1992
TTITLE7=Bonnie Tyler - Sally Comes Around  1993
TTITLE8=Cliff Richard - This New Year  1991
TTITLE9=Smokie - You´re So Different Tonight  1992
TTITLE10=Bellamy Brothers - Take Me Home  1992
TTITLE11=Tony Christie - Moonlight And Roses  1991
TTITLE12=Toto Cutugno - Quelli Come Noi  1991
TTITLE13=Udo Jürgens - Marathon-Mann  1991
TTITLE14=Daliah Lavi - Meine Art Liebe Zu Zeigen  1972
TTITLE15=Patrick Lindner - Ich Hätt´ Dich Sowieso Geküsst  1991
TTITLE16=Wencke Myhre - Wenn Gott Eine Frau Wär  1993
TTITLE17=Naabtal Duo - Beim Wirt Von Nebenan  1991
EXTD=
EXTT0=
EXTT1=
EXTT2=
EXTT3=
EXTT4=
EXTT5=
EXTT6=
EXTT7=
EXTT8=
EXTT9=
EXTT10=
EXTT11=
EXTT12=
EXTT13=
EXTT14=
EXTT15=
EXTT16=
EXTT17=
PLAYORDER=
